<svg xmlns="http://www.w3.org/2000/svg" viewBox="0 0 250 70" preserveAspectRatio="xMidYMid meet" style="width: 100%; height: auto; display: block;">
  <defs>
    <linearGradient id="cloudGrad" x1="0%" y1="0%" x2="0%" y2="100%">
      <stop offset="0%" style="stop-color:#8AACCC;stop-opacity:1" />
      <stop offset="100%" style="stop-color:#6890B8;stop-opacity:1" />
    </linearGradient>
  </defs>
  <title>FluxCloud Logo</title>
  <!-- Blue circle with white Flux symbol -->
  <g transform="translate(0, 10) scale(0.17)">
    <ellipse cx="169.032" cy="167.831" rx="169.032" ry="167.831" fill="#2b61d1"/>
    <g transform="translate(77.041 61.731)">
      <path d="M144.555,190.421l-19.224,11.107-41.3-23.841,18.756-10.832.469-.276.717.413Z" transform="translate(-32.311 13.286)" fill="#fff"/>
      <path d="M232.54,89.764v22.352L191.887,88.647l-11.025-6.367-11.025,6.367L118.16,118.483l-11.025,6.367V138.01L87.25,126.531l-11.025-6.367L65.2,126.531l-18.7,10.79V89.764l93.02-53.7Z" transform="translate(-46.5 -36.06)" fill="#fff"/>
      <path d="M209.856,117.919V177.59l-51.678,29.835-.069-.041L106.5,177.59V117.919L158.178,88.07Z" transform="translate(-23.815 -16.396)" fill="#fff"/>
      <path d="M105.95,132.727v34.314L76.225,184.212,46.5,167.041V132.727L76.225,115.57Z" transform="translate(-46.5 -5.999)" fill="#fff"/>
    </g>
  </g>
  <!-- FluxCloud as single text with tspans -->
  <text x="63" y="48" font-family="Montserrat, 'Segoe UI', system-ui, -apple-system, sans-serif" font-size="34" font-weight="600">
    <tspan fill="#ffffff">Flux</tspan><tspan fill="url(#cloudGrad)">Cloud</tspan>
  </text>
</svg>
