<svg width="318" height="54" viewBox="0 0 318 54" fill="none" xmlns="http://www.w3.org/2000/svg">
<g clip-path="url(#clip0_327_327)">
<path fill-rule="evenodd" clip-rule="evenodd" d="M311.864 19.5565L317.597 10.1264L314.417 0H95.852L94.8289 7.38912L92.8034 0H41.8666L40.1122 6.95751H35.8777L34.8735 10.806L29.2505 0H12.6512L0 40.283L10.081 53.9998H26.6592L28.6874 46.3894H35.3831L39.8731 53.9998H91.0452L92.264 45.1733L95.0961 53.9998H266.06L272.982 39.7711H279.241L285.054 28.4847L291.261 54.0002H308.472L318 40.2611L311.864 19.5565ZM164.145 29.1129L164.166 24.3046H178.87L179.019 29.1129H164.145ZM3.11796 39.7725L3.11782 39.7723H3.11803L14.7287 2.80195H27.3038L25.3035 9.75946H29.5566L27.56 16.9244H36.1933L38.0633 9.75946H42.3164L44.0707 2.80195H56.6464L48.3056 39.7723H48.3061L54.3386 51.2006H41.4919L34.7499 39.7729H34.7496L34.7497 39.7726L34.7495 39.7723H34.7497L38.6489 24.3062H34.267L32.2812 31.9147H23.3827L25.5029 24.3062H21.121L16.6743 39.7723H16.6747L24.3633 51.2006L11.5168 51.2004L3.1183 39.7729H3.11782L3.11796 39.7725ZM52.8238 39.7723H52.824L60.837 2.80195H73.4121L66.3802 39.7725L71.4669 51.2006H58.6204L52.8242 39.7729H52.8238L52.8239 39.7725L52.8238 39.7723ZM87.425 20.5876L84.4549 39.7723H84.4553L88.596 51.2006H75.7493L70.8991 39.7724H70.8982L77.6036 2.80195H90.1795L89.1016 9.75946H93.3549L92.309 16.9244H96.6257L98.5622 2.80195H111.137L107.049 39.7723H107.049L110.007 51.2006H97.1604L93.4933 39.7729H93.4926L95.0958 28.0814H90.6803L91.7744 20.5876H87.425ZM143.198 39.7723L143.511 31.9147H125.714L126.286 24.3062H143.814L144.109 16.9244H126.842L127.381 9.75946H144.394L144.671 2.80195H115.329L111.567 39.7729H111.569L114.289 51.2006H144.265L143.2 39.7723H143.198ZM148.863 2.80195L147.718 39.7723V39.7729L148.546 51.2006H178.522L179.35 39.7729H179.351L179.108 31.9147H161.311L161.408 9.75946H178.42L178.205 2.80195H148.863ZM197.425 39.7723H183.869L182.804 51.2006H195.651L197.425 39.7723ZM201.944 39.7723L199.933 51.2006H212.78L215.5 39.7723H201.944ZM233.574 39.7729L233.575 39.7723H233.574L231.971 28.0814H236.387L238.093 39.7723L234.19 51.2006H247.037L251.649 39.7729H251.65L251.65 39.7723L245.272 2.80195H215.93L220.018 39.7729L217.062 51.2004L229.908 51.2006L233.574 39.7729ZM251.319 51.2006L256.168 39.7723L249.464 2.80195H278.805L280.498 9.75946H263.485L264.974 16.9244H282.241L284.037 24.3062H266.509L269.725 39.7723L269.725 39.7729H269.724L264.165 51.2006H251.319ZM301.356 39.7729L294.141 51.2006H306.987L314.912 39.7729H314.912L314.912 39.7723L306.017 9.75946H314.524L312.339 2.80195H282.997L284.752 9.75946H293.258L301.356 39.7723L301.356 39.7729ZM196.398 24.3029H200.78L201.943 39.7688H215.499L213.548 20.5841H209.199L208.858 16.9209H213.175L211.738 2.79844H182.396L183.868 39.7696H197.424L196.398 24.3029ZM195.908 16.9205L195.433 9.75556H199.686L200.225 16.9205H195.908ZM237.543 16.3192H235.388L235.121 14.5125H240.133L239.383 9.75965H233.712L234.318 13.9135H230.028L229.458 9.75965H223.787L224.383 14.5125H229.394L229.639 16.3192H227.484L228.368 23.0604H231.283L230.944 20.5876H235.293L235.653 23.0604H238.567L237.543 16.3192Z" fill="white"/>
</g>
<defs>
<clipPath id="clip0_327_327">
<rect width="318" height="54" fill="white"/>
</clipPath>
</defs>
</svg>
