<svg width="371" height="80" viewBox="0 0 371 80" fill="none" xmlns="http://www.w3.org/2000/svg">
<g clip-path="url(#clip0_2068_27)">
<path d="M130.078 24.0659H109.777V36.1012H129.499V45.673H109.777V65.2494H99.7695V14.4941H130.078V24.0659Z" fill="#3E4654"/>
<path d="M136.967 65.2494V14.4941H146.32V65.2494H136.967Z" fill="#3E4654"/>
<path d="M178.802 28.9955H188.155V65.2496H178.802V61.1885C176.529 64.572 172.929 66.2638 167.998 66.2638C164.033 66.2638 160.758 64.9343 158.172 62.2755C155.586 59.6167 154.292 55.9438 154.292 51.2543V28.9932H163.645V50.092C163.645 52.5108 164.296 54.3579 165.602 55.6402C166.908 56.9226 168.647 57.5626 170.824 57.5626C173.24 57.5626 175.174 56.8143 176.624 55.3155C178.073 53.819 178.798 51.5696 178.798 48.572V28.9955H178.802Z" fill="#3E4654"/>
<path d="M230.139 65.2492H219.334L211.468 54.261L203.602 65.2492H192.798L206.085 46.7434L193.376 28.9951H204.181L211.494 39.2092L218.828 28.9951H229.56L216.871 46.7175L230.139 65.2492Z" fill="#3E4654"/>
<path d="M40 80C62.0914 80 80 62.0914 80 40C80 17.9086 62.0914 0 40 0C17.9086 0 0 17.9086 0 40C0 62.0914 17.9086 80 40 80Z" fill="#1B63EF"/>
<path d="M61.8823 38.6398V52.6328L59.5293 53.9928L54.5905 56.8445H54.5881L49.7646 59.6304L49.7623 59.6328L40.1129 54.061L37.647 52.6375V38.6398L49.7623 31.6445H49.7646L59.414 37.2139V37.2163L61.8823 38.6398Z" fill="white"/>
<path d="M44.8213 62.4848L40.0001 65.2684L37.6471 63.9107L32.706 61.0566L30.353 59.699L32.706 58.339L35.1742 56.9131L37.6471 58.3413L44.8213 62.4848Z" fill="white"/>
<path d="M30.353 42.8522L32.7059 44.2098V52.6357L30.2353 54.0616H30.233L25.4141 56.8451H25.4118L18.1177 52.6333V44.2075L20.5812 42.7863H20.5859L25.4094 39.998H25.4118V40.0004L30.3506 42.8522H30.353Z" fill="white"/>
<path d="M61.8824 27.3667V32.9338L54.7036 28.7903L49.7647 25.9385H49.7624L44.8212 28.7903L37.6471 32.9338L32.7059 35.7856V38.5056L30.3506 37.1456L25.4094 34.2938L20.4706 37.1456L18.1177 38.5032V27.3667L30.2353 20.3691L35.1765 17.5173L37.6471 16.0891L40 14.7314L49.6447 20.3009L54.5859 23.1526V23.155L59.5271 26.0067L61.8824 27.3667Z" fill="white"/>
<path d="M254.565 14.7809C259.087 14.7809 262.84 16.2727 265.823 19.2562C268.807 22.2397 270.299 25.9692 270.299 30.4421C270.299 34.915 268.807 38.6327 265.823 41.5927C262.84 44.5503 259.087 46.0303 254.565 46.0303H241.214V65.3009H237.388V14.7809H254.565ZM254.565 42.4233C258.028 42.4233 260.88 41.2939 263.118 39.0303C265.355 36.7692 266.473 33.9056 266.473 30.4421C266.473 26.9786 265.355 24.0421 263.118 21.7809C260.88 19.5197 258.031 18.388 254.565 18.388H241.214V42.4209H254.565V42.4233ZM279.031 65.3009V12.6162H282.64V65.3009H279.031ZM325.508 29.2162H329.188V65.3009H325.508V57.1456C323.967 59.9362 321.852 62.1244 319.158 63.7127C316.463 65.3009 313.407 66.0939 309.991 66.0939C304.842 66.0939 300.44 64.2774 296.783 60.6444C293.127 57.0115 291.299 52.5503 291.299 47.2562C291.299 41.9621 293.127 37.5009 296.783 33.868C300.44 30.235 304.842 28.4186 309.991 28.4186C313.407 28.4186 316.461 29.2115 319.158 30.7997C321.852 32.388 323.967 34.5786 325.508 37.3668V29.2115V29.2162ZM299.416 58.155C302.376 61.1386 305.995 62.6303 310.278 62.6303C314.56 62.6303 318.169 61.1386 321.103 58.155C324.038 55.1715 325.506 51.5409 325.506 47.2586C325.506 42.9762 324.038 39.3433 321.103 36.3621C318.169 33.3786 314.56 31.8868 310.278 31.8868C305.995 31.8868 302.376 33.3786 299.416 36.3621C296.459 39.3456 294.979 42.9786 294.979 47.2586C294.979 51.5386 296.459 55.1739 299.416 58.155ZM366.718 29.2162H370.614L355.026 68.6209C353.631 72.1809 351.659 74.9833 349.106 77.0303C346.555 79.075 343.765 79.9762 340.734 79.7362V76.3433C343.045 76.5339 345.125 75.875 346.979 74.3597C348.831 72.8421 350.336 70.6892 351.492 67.9009L352.271 65.9197L335.682 29.2162H339.579L354.12 61.2186L366.715 29.2162H366.718Z" fill="#8895A8"/>
</g>
<defs>
<clipPath id="clip0_2068_27">
<rect width="370.614" height="80" fill="white"/>
</clipPath>
</defs>
</svg>
