<svg xmlns="http://www.w3.org/2000/svg" width="315" height="74" fill="none" viewBox="0 0 315 74" >
    <g clip-path="url(#clip0_327_327)">
    <path fill-rule="evenodd" clip-rule="evenodd" fill="white" d="M23.192 2.568c-.295.425-.481.836-.56 1.233l-.924 2.454a8.19 8.19 0 0 0-.646 2.426c-.041.398-.343.782-.264 1.23.023.113.068.12.136.023.45-.656 1.02-1.2 1.71-1.63l1.11-.544c.144-.071.199-.036.166.106l-.038.155-.604 1.194c-.845 1.266-1.336 2.61-1.472 4.034-.045.487.053 1.031.03 1.551-.02.41.06.77.242 1.081.41.714.853 1.328 1.329 1.843.585.64 1.544 1.127 2.25 1.814.085.081.191.12.317.116.389-.017.616-.073 1.016.03 2.269.583 4.896.33 7.347.34 3.604.018 7.017.554 10.238 1.609a13.865 13.865 0 0 1 3.783 1.926c.285.205.354.474.208.805-.056.126-.033.242.068.348.264.274.364.582.298.925-.028.146.043.223.212.232l1.196.07c.14.008.276.05.393.12.116.07.209.168.268.28 1.143 2.198 1.535 4.511 1.178 6.942-.46 3.15-1.942 5.694-4.444 7.635-2.547 1.836-5.455 2.945-8.725 3.325-.588.07-.792-.123-1.075-.534a1.018 1.018 0 0 0-.423-.338c-.149-.058-.224-.016-.227.126-.002.095.05.203.159.325.16.39.07.604-.272.64-.378.037-1.291.067-2.741.089h-1.578c-.136 0-.203.06-.2.179l.015 2.536.041 9.54c.096 1.096.262 2.193.499 3.289.063.294.031.6-.095.918-.03.08 0 .138.09.176a.137.137 0 0 0 .148-.028.113.113 0 0 0 .027-.042.412.412 0 0 1 .241-.249.285.285 0 0 1 .325.053l.294.266.499.686.041.116c.04.11-.006.165-.14.162l-2.812-.04c-.967.091-1.861.014-2.684-.231a.744.744 0 0 0-.363-.017c-.577.12-1.121.252-1.721.255-3.61.011-7.194.01-10.753-.003a.463.463 0 0 1-.222-.059.387.387 0 0 1-.153-.153.327.327 0 0 1-.036-.2.346.346 0 0 1 .09-.188c.06-.064.079-.128.053-.192-.042-.129-.113-.142-.211-.04l-.85.868-1.155-.01a2.284 2.284 0 0 0-.694 0l-.329-.03c-.586.127-.978.109-1.174-.052-.058-.246.162-.388.66-.428.35-.044.663-.211.937-.5l1.71-1.41c2.303-2.204 3.549-5.032 4.395-7.906.032-.108.11-.173.234-.195.523-.104.87-.241 1.042-.411.002-.703.391-1.385 1.166-2.046a.24.24 0 0 0 .085-.168.24.24 0 0 0-.066-.176l-1.268-1.333c-.129-.469-.184-.786-.166-.951.56-5.22.585-10.441.071-15.664a88.05 88.05 0 0 0-.366-1.969c-.143-.744-.125-1.419.057-2.022.53-.457 1.122-.658 1.774-.603.123.01.163-.034.117-.136-.209-.462-.5-.773-.872-.935-.994-.429-1.784-.834-2.37-1.216-.57-.25-1.112-.677-1.628-1.28l-.434-.908a.492.492 0 0 0-.242-.239l-.989-.494c-.355-.457-.739-.779-1.152-.965-3.243-1.448-6.327-2.97-8.936-5.244-1.986-1.655-3.367-3.626-4.145-5.914L1.076 7.92c.093-.162.143-.19.15-.083.091-.259.042-.57-.147-.932a.853.853 0 0 0-.117-.268.706.706 0 0 1-.12-.355 8.403 8.403 0 0 1 .403-2.914c.058-.185.114-.184.167.004l.124.427a10.26 10.26 0 0 0 1.091 3.438 20.054 20.054 0 0 0 2.836 4.246c.286.332.532.688.736 1.068.01.123.04.234.09.331.053.1.141.148.265.146a.956.956 0 0 1 .653.232c.785.672 1.638 1.29 2.56 1.856a.177.177 0 0 0 .156.014.16.16 0 0 0 .065-.044.134.134 0 0 0 .031-.066l.159-.944a6.955 6.955 0 0 1 1.593-2.858 7.456 7.456 0 0 1 1.963-2.427c.197-.16.245-.132.144.087-.234.5-.514.984-.687 1.505a69.616 69.616 0 0 0-1.224 4.127l.167 1.558c.01.108.07.189.18.242l1.881.908 2.205.998 2.631 1.144c.214.09.28.038.2-.156l-1.083-2.679a13.024 13.024 0 0 1-.132-4.558 21.406 21.406 0 0 1 2.216-6.106A32.186 32.186 0 0 1 24.35.04c.037-.044.083-.05.136-.02l.079.047c.002.004.002.007 0 .01l-1.374 2.492ZM32.29 26.99l.038 3.5c-.043.137-.162.23-.359.279-.115.028-.156.094-.12.195.287.847.427 1.534.422 2.062-.017 1.856-.02 3.696-.007 5.52l-.14 2.827c-.158.115-.239.239-.242.372-.005.117.058.163.19.139.09-.016.157-.071.2-.166a23.98 23.98 0 0 1 2.57-1.038c1.251-.424 2.563-1.378 3.934-2.86.26-.184.505-.23.737-.136.068.026.088.009.06-.053a.532.532 0 0 0-.08-.12.28.28 0 0 1-.06-.288l.11-.332 1.223-2.065c1.284-2.88.434-6.812-3.047-8.165-1.553-.603-3.294-.874-5.225-.812-.138.005-.208.068-.208.19l.004.95Zm106.1-13.453.227 3.478c.005.11.051.216.132.302.639.694.888 1.503.747 2.43-.055.178-.187.335-.396.47l-.351.305c-.118.98-.631 1.72-1.537 2.224-1.384.77-2.296 1.309-2.737 1.618l-.109-.487c.027-.126.014-.3-.042-.52-.161-1.022-.215-1.888-.162-2.6.022-.294.189-.538.498-.732a.101.101 0 0 0 .042-.046.086.086 0 0 0 .003-.06.107.107 0 0 0-.035-.05.134.134 0 0 0-.063-.026c-.241-.03-.342-.152-.302-.368.224-1.178.618-2.101 1.182-2.768.471-.562.395-.626-.227-.193-.752.522-1.415 1.246-1.989 2.172-.682 1.098-.831 2.559-.446 4.382-1.621-1.925-1.797-3.882-.528-5.87.974-1.524 2.329-2.668 4.066-3.435.32-.23.671-.4 1.053-.51l.903-.292c.148-.047.207-.002.177.132l-.106.444Zm58.223 10.715.721 2.224c.619 2.038.325 3.567-.883 4.588-.552.382-1.002.468-1.352.259a3.18 3.18 0 0 1-.936-.836.507.507 0 0 1-.098-.38.544.544 0 0 1 .207-.346c1.499-1.18 2.318-2.125 2.326-4.014a.2.2 0 0 0-.02-.086.247.247 0 0 0-.139-.12.282.282 0 0 0-.098-.016l-.106.003a.15.15 0 0 0-.096.035.121.121 0 0 0-.043.084c-.072 1.336-.903 2.036-2.009 2.782-2.884 1.942-.838 2.957.725 4.674l1.306 1.74c.529.712.862 1.447 1.001 2.208a5.448 5.448 0 0 1-1.593.832c-.247-.002-.409.008-.487.03-.506.15-.496.265.03.344.166.025.433.011.8-.04.496.05 1.021.24 1.574.57l.578.468c.098.08.164.178.196.295 1.113 4.047.985 7.99-.385 11.828a.36.36 0 0 1-.101.147.434.434 0 0 1-.167.092 1.73 1.73 0 0 1-.777.046c-.247-.044-.271.001-.072.136.136.093.275.162.419.209.214.165.273.346.177.54a17.29 17.29 0 0 1-2.514 3.766c-3.511 3.708-8.043 5.796-13.595 6.262-5.067.426-9.736-.54-14.007-2.897-.35-.195-.511-.418-.483-.67.269-.38.521-.607.755-.68.566-.174.556-.315-.03-.42-.76-.135-1.66-.146-2.7-.034a12.631 12.631 0 0 1-1.529-1.342c-2.645-2.776-4.214-6.007-4.707-9.693l-.117-4.628c.206-.92.421-1.854.645-2.804.209-.895.862-1.467 1.96-1.714.344-.06.539-.086.585-.08.725.126.822-.037.29-.49-.191-.166-.353-.413-.487-.74.318-.925.499-2.21 1.061-2.98.71-.968 1.986-1.992 2.798-2.599l.332-.252.91-.6a.962.962 0 0 0 .294-.165c.237-.091.465-.226.684-.405 5.799-2.854 12.258-3.295 18.703-1.68.691.172 1.397.215 2.099.305l2.85.033c.016.1.053.178.114.235.09.088.19.096.298.023.562-.384.831-.881 1.438-1.2a9.07 9.07 0 0 0 1.631-1.064c.642-.53 1.073-1.121 1.291-1.773-.052.008-.042-.06.031-.206a.59.59 0 0 1 .087-.335c.07-.11.162-.127.275-.05.194.13.307.324.34.58Zm-23.487 8.032c-1.251.928-2.05 2.167-2.397 3.716l-.2.746a.372.372 0 0 1-.215.245 1.09 1.09 0 0 1-.559.103c-.181-.016-.209.033-.083.146.156.141.321.26.494.354a.31.31 0 0 1 .118.117c.027.048.038.1.033.152-.055.528-.101 1.07-.139 1.624-.297 4.378.876 8.393 3.518 12.043l.767.985c.506.66.74 1.35.702 2.065a.626.626 0 0 1-.102.312l-.385.577c-.116.172-.073.21.128.116 1.11-.526 2.087-.512 2.93.043 1.186.778 2.087 1.294 2.703 1.548 3.609 1.624 5.633-1.373 6.29-3.909.096-.369.278-.406.547-.112.116.128.245.246.386.355.229.174.288.137.177-.113-.261-.57-.691-1.323-.649-1.963.017-.25.045-.495.083-.736.717-4.982-1.152-10.922-4.312-14.914-1.74-2.197-4.141-3.842-7.23-4.08-.961-.075-1.829.118-2.605.58ZM57.46 27.258l.261.02c3.29.014 6.57.016 9.843.007.31 0 .648.116 1.015.348.265.146.786.007 1.563-.418.43-.026.737.174.918.6.229.391.31.826.241 1.303a30.912 30.912 0 0 0 2.737 7.256c.423.803.563 1.469.178 2.228-.096.192-.042.233.162.123.62-.332 1.138-.122 1.556.63l2.16 2.45.668.606c-.511.053-1.02-.08-1.526-.401-.473-.3-.915-.591-1.325-.872-.169-.113-.192-.093-.072.06l2.647 3.394 1.521 1.465.257.15.151.112.453.375.302.311c-.219.036-.599-.034-1.14-.208l-2.749-1.575c-.17-.203-.346-.33-.524-.378-.149-.042-.19-.002-.125.12.088.16.21.298.366.41l3.096 3.567 1.133 1.005 2.242 1.591c.295.21.253.298-.124.265-.504-.042-1.104-.206-1.801-.494l-1.14-.557-.453-.271-2.326-1.635c-.352-.247-.458-.182-.317.196a126.37 126.37 0 0 1 1.397 3.961c.128.385.145.771.049 1.16l-.298 1.174c-.09.335-.385.653-.333.988.02.126.102.2.246.222.45.069.837.208 1.159.418.05.068.11.106.181.112.465.335.842.498 1.129.988.347.597.72 1.174 1.117 1.73.318.451.64.895.967 1.33.27.356.276.714.019 1.074a3.216 3.216 0 0 0-1.314-.05l-2.31-.046a.495.495 0 0 1-.352-.14l-.268-.251c-.1-.093-.205-.099-.313-.017-.298.222-.582.424-1 .424-2.91.005-5.831.005-8.763 0a.44.44 0 0 0-.121-.248l.159-2.619-1.431-5.725a.344.344 0 0 0-.14-.2.433.433 0 0 0-.253-.075c-1.523.015-3.042.03-4.557.043-.853.009-1.558-.063-2.114-.215a.425.425 0 0 0-.34.043c-.342.196-.516.517-.52.96l-.956 3.134c-.315.846-.401 1.812-.26 2.897l.136 1.644c.027.358-.452.484-1.439.378l-10.495-.007-2.36.02a.27.27 0 0 1-.114-.024.235.235 0 0 1-.088-.068.188.188 0 0 1-.024-.2 4.332 4.332 0 0 1 1.034-1.372c2.752-2.987 3.907-6.653 5.418-10.183.09-.215.39-.458.902-.73a.077.077 0 0 0 .032-.029.07.07 0 0 0 .01-.04c-.05-.534-.223-.982-.012-1.512a570.128 570.128 0 0 1 3.673-8.947c.416-.985.514-1.664 1.74-2.095l1.772-.017c.03 0 .058-.008.082-.024a.13.13 0 0 0 .052-.061.112.112 0 0 0 .002-.077.127.127 0 0 0-.05-.063l-.653-.444a.622.622 0 0 1-.23-.269 4.765 4.765 0 0 1-.438-2.224l.344-1.323c.32-.581.516-1.21.589-1.886l.668-.563c.093-.078.1-.16.019-.25-.338-.377-.794-.659-1.37-.845l-1.45-1.528a5.062 5.062 0 0 1 1.623-.116Zm7.903 19.86c.214.14.467.241.758.305a.28.28 0 0 0 .141-.005.252.252 0 0 0 .116-.07.196.196 0 0 0 .027-.236c-.174-.295-.37-.524-.442-.869a811.823 811.823 0 0 1-2.05-9.995c-.123-.625-.268-.628-.434-.01-.003.01 0 .108.007.296a.824.824 0 0 1-.034.281c-.936 3.34-1.88 6.684-2.831 10.035-.033.119.021.179.162.179l4.263-.004c.115 0 .221.031.317.093Zm21.535-19.896c.118.07.27.086.456.046l1.975.02 1.891.176c.08.06.177.102.287.129a.55.55 0 0 0 .351-.033c.41-.184.776-.273 1.095-.269 1.795.027 3.596.017 5.403-.03l2.359-.013c.504-.013.685.076.544.269l-.479.427c-.396.495-.95.661-1.665.498a.118.118 0 0 0-.08.01.098.098 0 0 0-.03.026.086.086 0 0 0-.015.033l-.022.11c-.016.06.012.096.082.109.348.069.623.213.827.434a9.88 9.88 0 0 1-.105 1.14 8.385 8.385 0 0 0-.106 1.144c-.02 2.153-.023 4.306-.008 6.461.004.55-.173.869-.638 1.187a.343.343 0 0 1-.364.005.28.28 0 0 1-.085-.085.324.324 0 0 0-.223-.139c-.168-.029-.211.023-.128.156.284.453.63.854 1.038 1.203.442.378.434.614.427 1.12-.033 2.622-.048 6.938-.046 12.949l-.215 1.505c-.017.108.022.197.117.265l.148.113c.108.08.217.08.328.003.321-.229.608-.398 1.053-.394a30.53 30.53 0 0 0 5.399-.438l3.749-1.004.714-.279 1.298-.563c.121-.053.165-.023.132.092l-.29 1.015-.461 1.273c-.08.291-.24.477-.479.557-.134.046-.168.126-.102.238l.071.12c.064.11.076.237.034.354l-1.646 4.704a.356.356 0 0 1-.234.222c-.191.069-.439.1-.743.096l-1.794-.076c-.123-.004-.197-.06-.222-.169a.875.875 0 0 1 0-.381c.022-.113-.024-.196-.14-.249a.226.226 0 0 0-.178-.006 1.497 1.497 0 0 1-.347-.938c-.002-.056-.035-.084-.098-.087l-.117-.006c-.066-.002-.098.025-.098.083l.003.573c-.037.46-.203.817-.498 1.07a.535.535 0 0 1-.347.123H94.637a.866.866 0 0 1-.525-.172.688.688 0 0 1-.268-.434 1.635 1.635 0 0 0-.226-.627.135.135 0 0 0-.053-.048.16.16 0 0 0-.147 0 .135.135 0 0 0-.053.048l-.608 1.055c-.066.117-.174.175-.325.175l-5.063.023-.713-.033c-.128-.004-.19-.064-.185-.179.02-.338.133-.703.34-1.094.611-1.06.92-2.403.925-4.027.017-5.68.024-11.36.019-17.042 0-.7.185-1.386.558-1.996.076-.128.032-.197-.132-.206a.52.52 0 0 1-.264-.08.313.313 0 0 1-.155-.271c.008-2.76-.005-4.597-.038-5.51a6.096 6.096 0 0 0-.755-2.724l-.396-.617a4.482 4.482 0 0 1-.438-.676c-.058-.11-.06-.2-.008-.265.06-.078.17-.122.329-.133l.442-.066Zm24.332.056.762.003 7.532.027a.61.61 0 0 1 .336.096c.106.068.221.117.344.146.216.298.492.369.827.212.626-.29 1.054-.457 1.283-.5l1.046-.03.914.062c.136.011.181.073.136.186l-.265.65a4.573 4.573 0 0 0-.407 1.906c-.071.78-.072 1.335-.004 1.664.415 2.073.844 4.145 1.287 6.216.04.187-.073.554-.34 1.1-.05.097-.026.18.072.245.317.215.559.474.725.78l.242 1.11c.261 1.48.563 2.946.906 4.395.07.301.007.612-.189.932a.573.573 0 0 0-.057.52.524.524 0 0 0 .306.306c.154.061.256.022.306-.12l2.782-7.923.638-1.664c.043-.108.129-.175.257-.202l.616-.126c.463-.066.943-.006 1.442.18a.228.228 0 0 0 .218-.032.176.176 0 0 0 .06-.087.16.16 0 0 0-.003-.1c-.219-.597-.615-1.134-1.189-1.612-.614-.347-.515-1.275.298-2.784l.782-2.404.657-1.843a1.57 1.57 0 0 1 .555-.931c.036-.03.08-.05.128-.06a.327.327 0 0 1 .146.003.296.296 0 0 1 .125.065c.035.03.06.07.073.111l.241.782.695 1.996a852.068 852.068 0 0 0 3.726 10.31c.005.013.015.02.03.02a.089.089 0 0 1 .023-.004.38.38 0 0 0 0 .126.185.185 0 0 1-.068.176l-.842.739c-.297.258-.236.373.181.345.776-.053 1.282.293 1.518 1.037.237.743.504 1.492.801 2.248l.419 1.372c.022.073.076.113.162.12a.2.2 0 0 0 .109-.024c.051-.026.082-.081.095-.165.078-.495.145-.992.2-1.489l.759-3.865.324-1.558.144-.845c.148-.343.181-.616.098-.82.949-3.098 1.348-6.224 1.197-9.377-.176-.279-.278-.673-.306-1.184l.555-.437c3.428.02 6.838.03 10.231.03.116 0 .306.088.57.265.013.11.053.204.121.282.081.095.185.122.314.082.322-.099.606-.255.853-.467a.62.62 0 0 1 .317-.146l.574-.093c.551-.013.858.114.921.382L157.1 29.85c-.629 1.313-1.14 2.76-1.532 4.34-.103.417-.343.812-.718 1.183a.269.269 0 0 0-.071.295l.139.401a.537.537 0 0 1 .012.338 5258.12 5258.12 0 0 0-2.401 8.735c-.129.47-.408.766-.733 1.127l-.861.869a.193.193 0 0 1-.075.05l-.782.34c-.146.063-.16.143-.041.243l1.166.991c.026 1.419-.225 2.723-.751 3.912-.237.535-.408.992-.513 1.372-.111.404-.246.801-.404 1.19-.139.34-.236.7-.291 1.08-.232 1.55-.692 3.415-1.382 5.596a.266.266 0 0 1-.185.176c-.186.062-.443.09-.77.083-.468-.148-.926-.44-1.374-.875-.078-.078-.107-.065-.087.036.018.08.068.15.151.212.075.188.052.338-.072.448-.08.075-.22.114-.419.116-2.046.022-4.094.022-6.142 0a.51.51 0 0 1-.318-.113l-.596-.487c-.347-.35-.585-.843-.714-1.482l-.09-.331-.77-2.772a.306.306 0 0 1-.003-.158.354.354 0 0 1 .074-.147l.514-.61c.106-.125.072-.207-.102-.245-.587-.123-.933-.364-1.038-.722a147.893 147.893 0 0 1-1.533-5.63c-.131-.519-.263-.519-.397 0l-1.714 6.687a664.434 664.434 0 0 0-1.336 5.102c-.005.02-.025.133-.06.341-.081.497-.475.703-1.182.617a11.364 11.364 0 0 1-1.888-.153c-.472-.083-.815.053-1.276.07-1.694.057-3.551.07-5.572.036a.227.227 0 0 1-.17-.07.282.282 0 0 1-.068-.099l-.37-1.336a335.13 335.13 0 0 0-1.994-6.693c-.073-.234-.056-.542.05-.924a.28.28 0 0 0-.08-.282c-.314-.323-.496-.564-.543-.723-1.969-6.65-3.938-13.3-5.909-19.95a.598.598 0 0 1 0-.324 3.09 3.09 0 0 0 .03-1.658.367.367 0 0 0-.215-.248.784.784 0 0 0-.226-.073 2.972 2.972 0 0 1-.971-.534l-.702-.968-.615-.765c-.088-.111-.056-.166.098-.166l1.952-.02Zm92.84-.043 3.605.076a.52.52 0 0 1 .321.11.373.373 0 0 1 .132.202c.076.325.24.364.491.12.355-.345.714-.435 1.239-.438 5.111-.031 8.427-.032 9.948-.004.646.011 1.622.124 2.926.338.206.308.409.347.607.12l1.201.205 1.51.52c4.749 1.685 7.872 5.242 7.188 9.916a9.424 9.424 0 0 1-1.51 3.835c-.151.226-.342.34-.574.345l-1.982-.073a1.78 1.78 0 0 0-.49-.11c-.141-.008-.219.048-.235.17-.01.062.021.127.091.195.071.073.218.117.442.133.41.362.506.896.287 1.601-.176.24-.442.456-.797.646l-1.695.7c-.116.046-.15.121-.102.225l.868 1.82 1.692 2.718c.366.508.849 1.104.955 1.711.04.236.219.425.536.567.136.06.245.143.328.252a100.566 100.566 0 0 0 7.759 8.88 2.187 2.187 0 0 0-.049.083c-.02.038-.054.057-.102.057l-2.964-.023-7.279-.004a.788.788 0 0 1-.528-.189l-1.699-1.468a.405.405 0 0 1-.147-.295.755.755 0 0 1 .207-.537c.116-.133.078-.193-.113-.18l-.691.047a.425.425 0 0 1-.34-.12 35.274 35.274 0 0 1-4.017-4.604 39.257 39.257 0 0 1-4.511-7.833c-.098-.23-.182-.227-.249.01a.767.767 0 0 0 .045.527.55.55 0 0 1 .019.418c-.096.274-.344.462-.744.563a.213.213 0 0 0-.098.056.168.168 0 0 0-.032.195.198.198 0 0 0 .077.077c1.057.584.827 1.863.823 2.802l-.034 2.022c0 .117-.055.209-.166.275a1.67 1.67 0 0 1-1.027.262c-.231-.02-.265.042-.102.185a5.314 5.314 0 0 1 1.288 1.645c-.081 1.71.22 3.277.902 4.7l.679 1.054c.063.102.057.2-.018.295a.307.307 0 0 1-.253.12.353.353 0 0 1-.261-.106 6.7 6.7 0 0 1-.264-.279c-.083-.093-.175-.098-.276-.016a.68.68 0 0 0-.188.295l-1.715.063-3.639-.047-.906-1.203a.125.125 0 0 0-.047-.037.145.145 0 0 0-.123.002.123.123 0 0 0-.045.038l-.895 1.267-5.342.056c-.249-.013-.438-.059-.566-.136-.134-.077-.179-.219-.136-.424a4.12 4.12 0 0 1 .524-1.297 6.71 6.71 0 0 0 .661-2.698c.03-.875.04-1.745.03-2.609-.005-.398.083-1.02.265-1.87a5.219 5.219 0 0 0 .018-2.224c-.181-.857-.271-1.476-.271-1.856-.003-4.745-.002-9.487.003-14.228 0-.112.041-.213.121-.301a3.629 3.629 0 0 1 1.103-.816c.156.055.292.07.407.043.146-.03.19-.108.132-.232-.103-.22-.358-.357-.766-.408-1.106-.44-1.102-1.538-1.038-2.51.023-.34-.179-.723-.604-1.15a1.797 1.797 0 0 0-.272-.6l-.604-1.027c-.055-.097-.042-.186.041-.265.26-.245.605-.36 1.035-.345Zm11.945 6.282-.068 2.834c.139.687.028 1.26-.332 1.72-.073.093-.073.185 0 .276l.245.308a.437.437 0 0 1 .102.282l.004 2.532.03 2.822c.001.03.009.06.024.086a.22.22 0 0 0 .063.07.248.248 0 0 0 .193.04c3.672-.717 6.06-2.635 7.165-5.756.393-1.339.327-2.55-.196-3.633-1.125-2.327-4.33-3.096-7.034-2.96-.133.007-.2.068-.2.186l.004 1.193Zm38.943-6.305c.121.205.405.37.853.497l-.812 1.468c-.607 1.76-.449 3.56-.49 5.344a.595.595 0 0 1-.102.315l-1.223 1.803c-.089.13-.05.174.117.13.392-.106.509-.448.819-.54a.416.416 0 0 1 .249-.004c.126.04.189.118.189.235l-.015 17.686-.495 1.76c-.085.044-.118.159-.098.345a.212.212 0 0 0 .047.107c.025.032.06.057.101.074a.286.286 0 0 0 .252-.019 1.48 1.48 0 0 0 .449-.424l2.152-.232 1.454-.063 3.032-.352 2.499-.573c.747-.327 1.471-.425 2.171-.295.302-.203.573-.5.815-.892a.266.266 0 0 0 .117-.053.202.202 0 0 1 .17-.036c.116.026.156.084.121.172-.254.66-.497 1.313-.729 1.956l-.872 1.1a.23.23 0 0 0-.026.272c.377.723-.223 2.022-.669 3.053-.183.427-.487.53-.909.312a.429.429 0 0 0-.306-.037 3.11 3.11 0 0 1-1.057.067c-.166-.018-.205.035-.117.159.292.407.626.556 1.004.447.398-.114.637.01.717.372l.061.275c.073.327-.081.49-.461.49l-1.393-.003-10.092-.03c-.123 0-.205-.052-.245-.155l-.174-.471-.105-.444c-.036-.137-.112-.16-.231-.067a.54.54 0 0 0-.189.325c-.441.524-.845.819-1.646.822-2.735.02-5.469.021-8.2.004-.274.06-.521.072-.74.04-.148-.023-.18-.087-.094-.193l.759-.951a5.665 5.665 0 0 0 .993-2.918c.058-1.06.068-2.964.03-5.711a.31.31 0 0 1 .034-.149.357.357 0 0 1 .102-.123l.562-.431c.617-.347 1.175-.463 1.673-.348.77.177.875.018.313-.477-.479-.425-1.264-.766-1.699-1.28-.532-.643-.215-1.492-.49-2.247-.028-.343-.16-.698-.397-1.065a.547.547 0 0 1-.094-.308c.007-4.835.004-9.669-.012-14.5 0-.817-.293-1.729-.879-2.734l-.408-.577a.571.571 0 0 1-.087-.18c-.028-.114.023-.193.151-.235a2.83 2.83 0 0 0 .838-.447l4.508.03a.64.64 0 0 1 .366.11l.499.34c.105.074.205.07.298-.013l.385-.325 2.114-.135 2.907-.014 1.635-.06Zm15.746.003c.672.04 1.985.065 3.938.076.637.005 1.277.251 1.922.74.44.424 1.004.803 1.691 1.137.113.055.195.03.245-.077.167-.356.177-.75.031-1.183-.028-.201-.018-.358.03-.47.043-.111.132-.167.268-.167 3.071-.013 5.073 0 6.007.037 2.569.102 5.099.717 7.588 1.846 2.487 1.214 4.418 2.671 5.795 4.373.556.683.543 1.4-.041 2.154-.099.13-.066.167.098.11l.343-.113a.431.431 0 0 1 .385.043l1.144.713a.643.643 0 0 1 .238.255l.465.919c1.157 2.729 1.624 5.432 1.4 8.108-.022.267-.199.415-.528.444a.185.185 0 0 0-.075.023.157.157 0 0 0-.053.051.135.135 0 0 0-.021.067.126.126 0 0 0 .017.068c.728 1.283.37 2.652-.016 4.054a94.805 94.805 0 0 0-1.106 4.459c-.324 1.027-.295 1.985.087 2.874 1.505 2.12 3.723 3.091 6.652 2.917 2.602-.153 4.704-1.432 5.429-3.63.101-.307.208-.6.321-.878a1.82 1.82 0 0 0 .091-1.038c-.166-.835-.102-1.595-.582-2.45-.057-.101-.134-.116-.23-.043-1.238.946-2.417.877-3.537-.205-.411-.398-.608-.783-.593-1.154a1.81 1.81 0 0 1 .804.123c.078.03.147.02.208-.03a.14.14 0 0 0 .053-.08c.01-.048-.019-.1-.087-.155-1.161-.944-1.885-2.09-2.175-3.438.292-.305.149-.924-.43-1.856.123-.04.156-.197.098-.471-.083-1.269.084-1.604.502-1.005.375.473.788.8 1.238.982a5.044 5.044 0 0 0 2.247.779c1.15.307 2.038.885 2.665 1.733a.35.35 0 0 1 .068.295l-.045.19c-.023.101.012.185.105.251.222.16.341.44.359.842a4.66 4.66 0 0 1-.083 1.13.47.47 0 0 1-.008.153.18.18 0 0 1-.066.065.224.224 0 0 1-.191.015.204.204 0 0 1-.079-.053 4.879 4.879 0 0 0-2.51-1.572c-.317-.165-.618-.244-.902-.235-.144.002-.173.054-.087.156.136.163.321.277.555.341 1.668.95 2.875 2.276 3.62 3.978l.389 1.164.117 1.16c.131 1.032.004 1.997-.381 2.894-.275.632-.424.98-.449 1.044a8.257 8.257 0 0 1-.597 1.194 11.7 11.7 0 0 1-3.103 2.31c-4.059 2.105-8.933 2.264-12.625-.484-.261-.192-.31-.388-.321-.666-.005-.109-.067-.178-.185-.21-.491-.13-.882-.366-1.174-.709-.561-.647-.894-1.33-.997-2.048a.246.246 0 0 0-.066-.134.298.298 0 0 0-.138-.082l-.124-.04c-.131-.037-.198.005-.2.127l-.004.328c-.003.11-.057.195-.163.255l-1.159.63a17.516 17.516 0 0 1-4.149 1.448c-.74.16-1.276-.063-2.004-.142a6.266 6.266 0 0 0-1.008-.312c-.464-.09-.526.01-.189.302.08.069.253.116.517.142.151.146.223.262.215.349-.01.081-.107.123-.29.126-5.024.066-10.183.091-15.476.076l-.415-.043a.331.331 0 0 1-.276-.176 1.036 1.036 0 0 1-.113-.421c.3-.592.555-1.169.767-1.73.186-.5.3-1.103.343-1.81.063-1.114.171-2.203.325-3.266l.834-1.856a.606.606 0 0 1 .17-.215c.516-.436.832-.935.948-1.499a.15.15 0 0 0-.008-.08.164.164 0 0 0-.05-.069.191.191 0 0 0-.08-.039.22.22 0 0 0-.093 0l-1.657.364a.288.288 0 0 1-.114.001.268.268 0 0 1-.102-.042.226.226 0 0 1-.072-.077.197.197 0 0 1-.025-.097c.032-3.815.044-7.607.034-11.377-.004-1.108.275-2.129.6-3.176a.444.444 0 0 0-.034-.345c-1.11-2.009-.128-4.16-1.042-6.242l-.627-1.346-.234-.341-.562-.783a.141.141 0 0 1-.028-.078.142.142 0 0 1 .022-.079.166.166 0 0 1 .064-.059.193.193 0 0 1 .089-.022l1.638-.017Zm11.183 7.247.023 2.244a288.78 288.78 0 0 1-.046 5.483c-.002.199-.195.486-.577.862-.247.435-.755.566-1.526.394-.198-.024-.343-.008-.434.05-.118.077-.123.173-.015.288.088.095.234.153.438.173.327.448.727.81 1.201 1.087l.808.626.185 1.499-.034 6.301c-.057.968.136 2.616-.374 3.441-.169.126-.269.261-.302.405-.028.121.027.193.166.215.249.042.483-.03.702-.215.351-.269.668-.448 1.167-.48 7.868-.491 8.385-8.351 8.192-13.532-.034-.856.125-1.618.661-2.238.113-.13.078-.212-.106-.245-.546-.098-.85-.357-.913-.78-.31-2.015-1.138-3.805-2.485-5.37-1.044-1.014-2.309-1.67-3.794-1.965a18.53 18.53 0 0 0-2.631-.328c-.217-.012-.324.078-.321.268l.015 1.817ZM158.33 66.915l.699.59 2.846 2.53c.091.079.092.157.004.235l-3.436 3.043a.161.161 0 0 1-.105.038.162.162 0 0 1-.106-.038l-3.447-3.02c-.098-.086-.098-.172 0-.259l3.545-3.119Zm2.453 3.303a.113.113 0 0 0 .022-.029.081.081 0 0 0-.001-.068.08.08 0 0 0-.022-.03l-2.395-2.087a.109.109 0 0 0-.072-.026.11.11 0 0 0-.072.026l-2.373 2.098a.094.094 0 0 0-.022.03.082.082 0 0 0-.008.034.102.102 0 0 0 .008.034c.006.01.013.02.023.029l2.395 2.088a.109.109 0 0 0 .072.026.11.11 0 0 0 .072-.026l2.373-2.098Zm-10.802.774-36.659-.278-61.943-.292-33.517-.159a.847.847 0 0 0-.351.073.487.487 0 0 1-.442-.02.416.416 0 0 0-.185-.043 178.21 178.21 0 0 0-8.71.035.031.031 0 0 1-.022-.026c-.006-.105-.01-.122-.012-.049 0 .013.008.02.023.02 4.088-.066 8.302-.209 12.255-.225a34677.9 34677.9 0 0 0 30.236-.14l99.421-.503a.467.467 0 0 0 .317-.12l.525-.48c.131-.12.263-.12.396 0l1.348 1.21c.121.11.121.22 0 .331l-1.453 1.316a.031.031 0 0 1-.031 0c-.626-.48-1.025-.696-1.196-.65Zm116.937-1.11 25.295.123c.003.068-.03.179-.098.331l-26.518.093-58.926.285c-13.174.022-26.351.096-39.532.222-.574.007-.729-.053-1.114.365a1.082 1.082 0 0 1-.389.268.274.274 0 0 1-.309-.046l-1.397-1.23c-.043-.013-.073-.045-.091-.096a.1.1 0 0 1-.002-.06.112.112 0 0 1 .033-.053l1.502-1.32c.111-.096.222-.096.332 0l.597.521a.47.47 0 0 0 .321.116l100.296.481Z"/>
    </g>
    <defs>
        <clipPath id="clip0_327_327">
            <rect width="315" height="74" fill="white"/>
        </clipPath>
    </defs>
</svg>